<?xml version="1.0" encoding="utf-8"?>
<!-- Designed by Vexels.com - 2016 All Rights Reserved - https://vexels.com/terms-and-conditions/  -->

<svg version="1.0" id="Capa_1" xmlns="http://www.w3.org/2000/svg" xmlns:xlink="http://www.w3.org/1999/xlink" x="0px" y="0px"
	 width="1200px" height="1199.999px" viewBox="0 0 1200 1199.999" enable-background="new 0 0 1200 1199.999" xml:space="preserve">
<g>
	<path fill="#5FC6CB" d="M608.441,144.856c-4.46,0-8.853,0.212-13.268,0.329v108.951c4.415-0.188,8.807-0.351,13.268-0.351
		c190.877,0,346.169,155.325,346.169,346.179c0,190.901-155.292,346.205-346.169,346.205c-120.081,0-226.064-61.475-288.171-154.599
		c9.627-2.77,19.022-10.988,24.598-22.729l9.991-21.063c8.793-18.55,4.768-38.885-8.993-45.413l-112.286-53.23
		c-3.583-1.714-7.48-2.301-11.424-1.926c-13.866-1.832-26.475,3.099-31.301,13.455l-52.48,112.661
		c-6.422,13.806,3.453,32.006,22.073,40.693l21.097,9.815c11.282,5.258,23.164,5.751,32.217,2.277
		c78.614,136.729,225.98,229.034,394.679,229.034c250.965,0,455.143-204.167,455.143-455.18
		C1063.585,349.023,859.406,144.856,608.441,144.856z"/>
	<path fill="#5FC6CB" d="M530.696,574.37c4.602,4.977,10.931,8.031,17.704,8.875c-2.277,6.341-3.616,13.056-3.91,20.007
		c-0.774,17.94,5.497,35.127,17.67,48.37c12.727,13.806,30.784,21.743,49.568,21.743l0,0c16.906,0,33.049-6.292,45.519-17.752
		c19.5-17.916,25.922-44.754,18.913-68.587c5.143-0.19,9.827-1.88,13.513-5.049l100.254-85.142
		c4.436-3.758,7.043-9.183,7.302-15.215c0.293-7.42-2.948-15.122-8.877-21.087c-10.272-10.354-26.485-12.397-35.891-4.366
		l-100.275,85.142c-2.383,2.065-4.179,4.602-5.434,7.444c-10.486-6.389-22.602-9.933-35.047-9.933
		c-10.214,0-20.123,2.325-29.14,6.668c-1.149-4.696-3.333-9.017-6.656-12.633L444.239,390.75
		c-5.448-5.893-13.277-9.298-21.486-9.298c-7.783,0-15.273,2.957-21.085,8.264c-6.153,5.588-9.875,13.455-10.238,21.58
		c-0.339,7.841,2.361,15.285,7.62,20.967L530.696,574.37z"/>
</g>
</svg>
